<?xml version="1.0" standalone="no"?>
<!DOCTYPE svg PUBLIC "-//W3C//DTD SVG 20010904//EN"
 "http://www.w3.org/TR/2001/REC-SVG-20010904/DTD/svg10.dtd">
<svg version="1.0" xmlns="http://www.w3.org/2000/svg"
 width="1024.000000pt" height="1024.000000pt" viewBox="0 0 1024.000000 1024.000000"
 preserveAspectRatio="xMidYMid meet">

<g transform="translate(0.000000,1024.000000) scale(0.100000,-0.100000)"
fill="#000000" stroke="none">
<path d="M4896 8073 c-4 -4 -40 -11 -79 -14 -181 -15 -544 -110 -752 -197
-107 -45 -317 -148 -359 -177 -20 -14 -39 -25 -42 -25 -6 0 -179 -115 -219
-146 -16 -13 -52 -40 -79 -61 -94 -73 -376 -364 -428 -442 -10 -14 -33 -46
-53 -71 -35 -46 -165 -237 -203 -300 -24 -39 -132 -255 -156 -310 -42 -101
-134 -369 -147 -435 -6 -27 -15 -70 -21 -95 -11 -54 -24 -128 -40 -230 -25
-167 -13 -634 21 -805 6 -27 14 -72 20 -100 22 -111 88 -344 121 -425 12 -30
28 -72 36 -93 22 -58 151 -314 202 -397 145 -241 304 -430 534 -636 193 -173
388 -301 654 -430 471 -227 748 -293 1234 -294 159 0 438 19 512 34 338 71
498 126 768 264 310 157 612 370 769 539 194 210 406 504 516 714 68 130 171
377 221 526 51 155 91 414 100 658 12 332 -50 753 -150 1027 -83 226 -164 384
-314 610 -118 179 -150 224 -196 275 -24 27 -47 56 -53 66 -16 30 -233 246
-307 306 -325 264 -680 451 -1061 559 -194 55 -263 70 -440 93 -100 13 -598
23 -609 12z m-308 -236 c3 -22 -1 -27 -18 -27 -23 0 -35 22 -26 46 10 25 41
12 44 -19z m1170 -13 c4 -27 -22 -38 -42 -18 -8 8 -13 21 -9 30 8 22 47 13 51
-12z m-403 -82 c94 -32 153 -70 244 -157 141 -135 175 -195 266 -471 71 -216
88 -250 181 -370 105 -136 217 -203 363 -217 106 -11 231 43 353 153 183 163
328 222 511 207 85 -7 105 -20 158 -99 23 -35 58 -80 78 -102 27 -29 31 -37
16 -33 -11 3 -47 14 -80 23 -41 13 -95 18 -170 18 -95 0 -119 -3 -175 -26
-122 -48 -195 -89 -310 -174 -133 -98 -202 -134 -320 -169 -108 -32 -207 -34
-310 -5 -98 28 -148 58 -229 139 -72 71 -121 149 -171 276 -49 123 -135 284
-185 347 -56 70 -161 150 -235 180 -47 19 -74 23 -180 23 -115 0 -130 -2 -183
-27 -161 -76 -270 -216 -380 -490 -44 -109 -109 -207 -186 -283 -187 -182
-348 -226 -563 -152 -109 38 -145 59 -313 187 -153 116 -236 157 -351 173
-128 19 -302 -10 -390 -64 -48 -29 -49 -24 -8 34 131 182 143 195 197 208 84
21 210 17 297 -10 100 -31 148 -61 244 -151 166 -154 201 -174 312 -173 120 1
246 44 343 117 107 80 203 251 270 481 55 189 115 305 204 401 112 120 216
186 347 220 80 20 276 12 355 -14z m-1135 -17 c0 -32 -28 -45 -46 -21 -17 24
-7 46 22 46 19 0 24 -5 24 -25z m230 -36 c15 -27 6 -49 -19 -49 -24 0 -37 35
-21 55 17 20 27 19 40 -6z m1465 -9 c9 -15 -4 -50 -19 -50 -20 0 -39 27 -32
45 6 17 42 20 51 5z m-1915 -66 c0 -15 -6 -24 -15 -24 -18 0 -30 24 -21 45 8
22 36 6 36 -21z m2244 10 c19 -19 21 -68 4 -81 -27 -21 -47 -21 -72 -2 -32 25
-34 63 -4 83 29 20 52 20 72 0z m-2304 -200 c34 -29 60 -73 60 -103 0 -11 -20
-40 -44 -65 -59 -62 -94 -63 -154 -6 -35 34 -42 47 -42 78 1 42 14 63 61 98
42 31 80 30 119 -2z m325 -54 c0 -16 -6 -26 -18 -28 -19 -4 -32 20 -23 44 9
25 41 13 41 -16z m1785 5 c0 -32 -28 -45 -46 -21 -17 24 -7 46 22 46 19 0 24
-5 24 -25z m-2490 -15 c0 -20 -5 -30 -15 -30 -18 0 -30 24 -21 45 10 28 36 17
36 -15z m3195 -15 c0 -23 -5 -30 -19 -30 -24 0 -41 27 -33 49 4 11 15 16 29
14 18 -2 23 -9 23 -33z m-319 4 c10 -17 -13 -36 -27 -22 -12 12 -4 33 11 33 5
0 12 -5 16 -11z m-1156 -149 c155 -46 306 -238 410 -525 34 -93 60 -141 114
-210 25 -31 27 -37 11 -31 -38 15 -75 25 -75 19 0 -19 -76 99 -97 150 -63 156
-181 306 -288 368 -78 45 -177 64 -255 51 -153 -27 -241 -104 -365 -315 -44
-75 -82 -132 -84 -126 -2 7 -6 6 -12 -2 -6 -10 -9 -4 -9 18 0 45 90 271 144
364 63 108 135 182 210 219 103 51 172 56 296 20z m-1090 -70 c15 -27 3 -60
-20 -60 -29 0 -42 32 -24 58 19 27 30 28 44 2z m1979 -2 c11 -29 4 -46 -22
-60 -17 -9 -24 -7 -39 12 -22 27 -22 34 -2 54 22 23 53 20 63 -6z m-2646 -20
c23 -35 -36 -66 -63 -33 -10 13 -9 19 6 36 20 23 42 22 57 -3z m3430 6 c9 -9
-4 -34 -18 -34 -16 0 -37 25 -28 33 8 9 38 9 46 1z m-1652 -205 c123 -66 300
-328 261 -389 -5 -8 -12 -15 -16 -15 -3 0 -30 32 -59 70 -89 119 -207 183
-322 172 -112 -11 -204 -50 -295 -126 -28 -23 -42 -28 -68 -24 -28 5 -32 9
-26 27 14 49 141 221 188 257 101 77 226 87 337 28z m-1281 -9 c25 -25 25 -41
-1 -69 -26 -28 -59 -24 -78 10 -13 24 -13 29 2 53 21 31 50 33 77 6z m-807
-275 c91 -24 153 -60 285 -167 144 -116 311 -209 409 -229 127 -24 274 1 408
69 28 14 56 27 63 28 8 1 17 6 20 10 4 4 -2 4 -13 0 -11 -3 6 16 37 44 32 28
74 71 95 95 l38 45 3 -66 c2 -56 0 -65 -12 -61 -9 4 -18 1 -22 -5 -4 -7 -3 -8
4 -4 19 11 14 -5 -5 -21 -10 -8 -12 -11 -5 -8 28 15 -6 -30 -69 -90 -54 -52
-63 -57 -69 -40 -6 17 -7 17 -13 1 -4 -10 -5 -22 -1 -27 3 -5 1 -9 -4 -9 -5 0
-53 -24 -108 -54 -162 -88 -255 -95 -434 -36 -107 35 -235 114 -335 206 -158
145 -428 204 -637 138 -46 -15 -113 -42 -150 -60 -37 -19 -70 -34 -73 -34 -15
0 59 121 94 153 53 48 167 105 256 127 52 13 178 11 238 -5z m4192 -11 c72
-18 195 -93 230 -138 13 -18 31 -50 39 -73 l14 -40 -77 39 c-97 50 -218 72
-346 65 -156 -9 -258 -56 -451 -207 -75 -60 -165 -122 -198 -140 -152 -77
-367 -83 -511 -15 -19 10 -32 22 -29 27 4 6 -1 8 -14 4 -23 -8 -34 5 -38 43
-1 14 -5 36 -8 49 -3 16 0 22 12 22 13 0 9 7 -13 26 l-30 26 47 -25 c94 -50
245 -74 353 -57 153 24 258 70 393 174 196 149 254 186 332 210 91 29 208 33
295 10z m-2230 -79 c0 -23 -5 -31 -22 -33 -17 -3 -24 3 -29 22 -8 32 3 48 29
44 17 -2 22 -10 22 -33z m-474 -132 c-12 -20 -14 -14 -5 12 4 9 9 14 11 11 3
-2 0 -13 -6 -23z m-1573 -19 c149 -31 203 -60 370 -197 176 -146 334 -209 518
-209 109 1 193 21 288 70 39 20 74 35 78 34 4 -1 17 6 27 15 22 18 55 27 45
12 -3 -5 -9 -7 -14 -4 -5 3 -11 1 -15 -5 -3 -5 -1 -10 5 -10 21 0 -62 -91
-115 -125 -82 -55 -209 -101 -245 -90 -10 3 -21 1 -24 -4 -4 -5 -20 -8 -36 -6
-17 2 -30 0 -30 -5 0 -6 -5 -10 -11 -10 -5 0 -7 5 -3 11 4 8 0 8 -15 0 -11 -7
-21 -8 -21 -4 0 4 -24 8 -53 8 -116 1 -211 49 -406 205 -182 145 -285 190
-441 190 -144 0 -309 -58 -438 -154 -34 -25 -64 -46 -67 -46 -11 0 8 76 26
106 27 44 132 123 231 173 120 61 211 73 346 45z m4322 -10 c89 -20 197 -75
258 -129 39 -36 55 -59 71 -107 12 -34 21 -68 21 -75 0 -7 -25 12 -57 43 -62
62 -153 110 -263 139 -50 13 -92 16 -185 12 -187 -7 -244 -33 -451 -207 -123
-103 -209 -150 -335 -182 -79 -20 -90 -21 -130 -8 -24 8 -63 15 -86 15 -22 0
-39 3 -36 8 2 4 -13 7 -35 7 -49 0 -142 27 -142 42 0 6 -3 9 -6 5 -16 -16
-150 75 -139 93 3 4 -15 29 -40 55 -25 25 -45 50 -45 55 0 5 -13 19 -30 31
-16 12 -27 26 -24 30 2 4 25 -10 49 -33 24 -23 41 -46 38 -51 -3 -6 -1 -7 5
-3 6 3 35 -9 64 -27 168 -107 287 -136 465 -113 191 26 260 60 441 220 150
132 213 168 337 192 77 14 155 11 255 -12z m-2137 -114 c72 -34 150 -110 177
-172 19 -43 22 -65 18 -128 -5 -86 -30 -143 -79 -184 -30 -26 -98 -60 -105
-53 -2 2 8 28 22 58 36 74 64 157 64 189 0 45 -29 113 -62 147 -16 17 -57 43
-91 58 -52 24 -69 27 -127 23 -96 -7 -154 -37 -195 -102 -44 -69 -52 -133 -29
-231 23 -99 11 -115 -44 -59 -131 131 -43 403 149 466 94 30 224 25 302 -12z
m-756 -63 c-18 -27 -37 -33 -37 -13 0 9 7 16 15 16 8 0 14 3 14 8 -3 16 2 23
12 17 7 -5 6 -14 -4 -28z m-1422 -28 c74 -16 162 -62 227 -116 176 -148 247
-203 286 -223 65 -34 176 -60 280 -67 51 -3 95 -10 98 -14 3 -5 -2 -6 -11 -3
-9 4 -15 3 -14 -2 1 -5 1 -21 0 -36 l-1 -26 -115 1 c-68 1 -119 -2 -123 -8
-30 -42 -176 31 -329 165 -130 113 -276 178 -405 179 -68 1 -177 -21 -239 -47
-42 -18 -249 -153 -309 -201 -36 -29 -43 -26 -35 16 15 82 82 167 199 254 177
132 311 167 491 128z m4307 7 c117 -27 270 -135 363 -256 56 -72 75 -112 57
-118 -6 -2 -12 -11 -12 -19 0 -13 3 -13 15 -3 13 11 15 8 14 -16 0 -25 -1 -26
-9 -9 -5 11 -9 16 -9 12 -1 -5 -31 18 -68 49 -165 140 -305 203 -454 204 -154
0 -279 -48 -406 -158 -43 -37 -102 -84 -130 -105 -52 -38 -172 -98 -195 -96
-7 0 -4 5 7 10 15 7 12 8 -15 4 -19 -2 -38 1 -41 7 -4 7 -53 14 -117 17 -103
6 -111 8 -143 36 l-34 30 120 1 c106 1 130 4 207 31 103 36 217 110 342 222
137 123 240 169 381 170 39 0 96 -5 127 -13z m-2253 -259 c6 -18 12 -101 13
-185 l3 -154 65 7 c211 22 370 94 507 230 46 45 85 80 88 77 10 -10 5 -63 -9
-95 -28 -65 -182 -190 -284 -232 -108 -44 -230 -75 -303 -76 l-69 -2 6 -131
c3 -72 8 -138 11 -146 3 -8 22 -62 42 -120 78 -222 214 -357 395 -391 115 -21
221 14 311 104 42 43 57 67 70 112 45 155 -11 306 -137 369 -89 44 -183 31
-241 -34 -41 -45 -55 -97 -37 -140 18 -44 74 -89 120 -96 49 -8 58 -19 34 -45
-35 -39 -142 -19 -198 38 -39 38 -52 69 -60 135 -13 107 37 195 136 238 80 35
212 35 289 -1 80 -38 134 -91 172 -168 30 -63 32 -72 32 -181 0 -110 -2 -118
-33 -182 -39 -79 -133 -173 -216 -213 -67 -33 -180 -43 -282 -26 -171 30 -329
177 -435 406 -27 59 -33 66 -37 45 -7 -40 -51 -139 -86 -191 -43 -64 -168
-175 -237 -209 -147 -75 -285 -80 -414 -16 -86 42 -159 116 -202 204 -26 53
-28 65 -28 182 1 115 3 130 28 183 33 71 104 144 172 177 41 20 65 25 135 25
72 0 93 -4 135 -26 68 -35 130 -112 144 -181 35 -167 -148 -331 -249 -223
l-23 24 27 11 c15 5 35 10 44 10 41 0 64 15 89 57 21 36 25 53 20 90 -13 116
-130 171 -274 128 -76 -22 -97 -45 -133 -138 -27 -70 -31 -92 -28 -152 7 -129
73 -231 184 -286 56 -28 73 -31 144 -31 60 1 96 8 141 26 82 33 165 92 205
146 18 25 42 56 53 71 21 27 70 151 95 241 11 37 16 97 16 182 l0 126 -67 0
c-229 0 -523 158 -589 315 -16 39 -19 101 -4 110 5 3 16 -7 24 -22 8 -15 43
-56 78 -90 138 -134 287 -199 499 -218 l67 -5 3 168 c4 176 10 202 49 202 12
0 22 -12 29 -33z m-2081 13 c83 -20 185 -78 272 -156 47 -42 105 -89 130 -105
25 -16 40 -29 33 -29 -6 0 -9 -10 -7 -22 2 -13 1 -17 -2 -10 -4 9 -11 7 -24
-9 -11 -11 -24 -18 -29 -14 -7 4 -8 -1 -4 -12 4 -11 -15 0 -47 27 -156 128
-282 180 -445 180 -167 0 -309 -58 -480 -195 -22 -17 -52 -40 -67 -50 -27 -17
-28 -17 -28 4 0 32 121 163 218 235 188 141 336 189 480 156z m4382 -23 c57
-23 164 -86 158 -93 -2 -1 -15 -5 -28 -7 -85 -16 -100 -20 -100 -26 0 -3 -51
-4 -114 -3 -198 6 -300 -25 -452 -137 -45 -32 -92 -65 -105 -71 -28 -16 -79
-15 -89 0 -5 8 -15 8 -34 0 -15 -5 -32 -7 -38 -4 -7 4 -8 2 -4 -5 5 -8 -2 -11
-26 -9 -19 1 -39 -2 -46 -6 -7 -4 -12 -3 -12 2 0 13 48 25 62 16 6 -4 8 -3 5
3 -6 9 60 37 88 38 5 0 28 16 49 35 22 19 71 64 110 98 123 110 225 171 321
192 66 15 189 3 255 -23z m-3285 -107 c-3 -5 -12 -10 -18 -10 -7 0 -6 4 3 10
19 12 23 12 15 0z m-127 -37 c-10 -2 -26 -2 -35 0 -10 3 -2 5 17 5 19 0 27 -2
18 -5z m3653 -10 c13 -16 12 -17 -3 -4 -10 7 -18 15 -18 17 0 8 8 3 21 -13z
m127 -146 c72 -94 67 -113 -12 -40 -35 33 -82 73 -104 89 -65 45 -52 63 27 38
11 -4 10 2 -4 18 -10 13 -5 10 11 -7 17 -16 53 -61 82 -98z m-358 67 c120 -27
233 -114 389 -299 l51 -60 0 -96 0 -96 -112 112 c-165 163 -252 213 -406 235
-81 11 -161 3 -254 -28 -88 -29 -147 -69 -238 -161 -86 -87 -133 -152 -274
-381 -142 -230 -227 -316 -366 -369 -68 -27 -200 -52 -200 -38 0 3 17 11 38
18 65 21 166 86 241 155 85 79 209 259 262 380 56 130 139 285 183 345 50 69
158 168 238 220 129 83 269 102 448 63z m-4393 2 c107 -22 186 -67 281 -160
111 -107 172 -202 281 -434 66 -143 105 -212 147 -265 63 -78 207 -225 266
-271 21 -16 36 -31 35 -33 -6 -5 -109 33 -165 61 -106 54 -222 195 -376 458
-125 215 -219 313 -375 391 l-84 42 -121 0 c-210 0 -302 -44 -503 -239 l-113
-109 0 100 0 100 56 64 c112 127 236 230 322 266 97 42 234 53 349 29z m3483
-20 c0 -2 -7 -7 -16 -10 -8 -3 -12 -2 -9 4 6 10 25 14 25 6z m-4 -115 c-3 -5
-52 -8 -108 -8 l-103 0 90 7 c50 3 98 7 108 8 10 1 16 -2 13 -7z m-3517 -146
c175 -42 328 -186 458 -431 31 -60 77 -138 101 -174 25 -36 39 -66 33 -68 -21
-7 -91 60 -147 141 -68 98 -109 143 -189 207 -118 94 -240 135 -374 128 -154
-9 -272 -71 -433 -228 -59 -58 -108 -99 -108 -91 0 8 -5 29 -12 46 -10 31 -8
37 40 106 71 103 180 224 238 266 90 64 153 89 274 107 46 6 55 6 119 -9z
m4363 4 c151 -32 286 -131 408 -299 34 -47 69 -90 77 -97 12 -9 12 -21 1 -82
l-13 -71 -50 67 c-57 77 -175 179 -255 222 -163 87 -363 79 -530 -21 -92 -55
-149 -110 -237 -228 -78 -105 -183 -213 -183 -189 0 8 24 54 54 101 30 48 76
128 102 179 163 316 390 468 626 418z m-3514 -221 c17 -17 15 -43 -4 -58 -12
-11 -18 -10 -35 6 -17 18 -18 21 -3 42 17 25 25 27 42 10z m2526 -14 c7 -19
-10 -44 -31 -44 -17 0 -27 24 -19 45 7 20 42 19 50 -1z m-3376 -49 c120 -27
228 -107 348 -258 96 -119 126 -147 199 -184 39 -19 92 -53 118 -75 82 -68
151 -103 291 -149 140 -46 158 -59 131 -96 -12 -16 -19 -16 -85 -5 -40 7 -95
22 -123 33 -29 12 -61 25 -72 29 -84 33 -200 95 -251 133 -34 26 -115 100
-180 164 -95 94 -135 127 -200 160 -174 92 -346 97 -505 17 -76 -38 -201 -134
-247 -189 l-31 -39 -10 25 c-21 56 -17 64 68 168 97 119 182 193 267 233 103
48 177 57 282 33z m4365 0 c38 -8 92 -25 121 -38 73 -34 194 -146 271 -252 55
-75 65 -95 61 -119 -4 -16 -6 -35 -6 -43 0 -8 -33 19 -72 60 -140 142 -266
205 -432 214 -64 4 -111 0 -159 -11 -123 -29 -191 -73 -371 -244 -131 -124
-250 -209 -354 -252 -83 -35 -199 -66 -272 -73 -30 -2 -47 -2 -37 0 9 2 17 9
17 14 0 6 -9 7 -20 4 -11 -4 -20 -2 -20 4 0 6 -12 11 -27 11 -14 0 -24 3 -21
6 3 3 25 5 49 6 73 1 304 105 452 204 61 41 114 74 118 74 4 0 71 71 148 159
143 162 204 216 285 252 90 39 166 46 269 24z m-4359 -260 c128 -33 224 -103
376 -271 30 -33 75 -77 100 -97 25 -21 36 -34 26 -30 -11 3 -17 2 -14 -3 4 -5
-13 -9 -35 -9 -23 1 -51 -2 -63 -6 -14 -5 -31 -1 -50 12 -16 10 -26 19 -22 19
9 0 -40 50 -50 50 -4 1 -25 19 -47 41 -70 69 -201 119 -315 119 -62 0 -180
-25 -236 -50 -50 -22 -142 -91 -193 -144 -19 -20 -38 -36 -42 -36 -3 0 -9 24
-11 52 -5 52 -5 53 55 126 166 201 336 275 521 227z m4384 -10 c34 -8 86 -27
115 -41 53 -27 157 -121 228 -205 l39 -47 -13 -56 -13 -56 -44 45 c-52 53
-157 125 -226 156 -60 27 -213 37 -295 20 -113 -24 -173 -62 -311 -200 l-128
-129 -45 21 c-25 12 -45 27 -45 34 0 7 -6 13 -14 13 -34 0 -21 21 47 76 40 32
112 103 160 156 98 109 195 183 271 210 64 22 188 23 274 3z m-4338 -273 c95
-37 260 -195 260 -249 0 -20 -6 -23 -37 -24 -21 -1 -42 0 -48 2 -5 2 -32 4
-60 4 -27 0 -59 6 -70 12 -11 7 -15 13 -10 13 10 1 -22 14 -114 46 -27 10 -57
13 -77 9 -24 -4 -34 -2 -34 7 0 9 -3 10 -8 2 -4 -6 -54 -14 -112 -18 -58 -4
-120 -9 -137 -12 -30 -6 -33 -4 -33 19 0 20 -4 24 -20 20 -11 -3 -20 -8 -20
-12 0 -3 -10 -12 -22 -20 -14 -9 -7 5 19 36 89 105 165 161 250 183 64 16 211
6 273 -18z m4404 -15 c33 -15 80 -44 104 -64 53 -44 142 -135 142 -146 0 -16
-41 -87 -50 -87 -6 0 -10 5 -10 11 0 5 5 7 10 4 17 -11 0 48 -18 63 -9 6 -35
12 -58 12 -23 0 -51 3 -61 7 -13 4 -9 -4 12 -26 l30 -33 -48 25 c-68 36 -142
50 -233 45 -81 -5 -126 -21 -199 -69 -22 -14 -46 -24 -54 -21 -8 3 -11 0 -7
-7 7 -11 -10 -16 -49 -13 -16 2 -17 0 -5 -8 13 -8 12 -10 -5 -11 -11 -1 -23
-1 -27 0 -5 0 -8 -8 -8 -19 0 -26 -28 -40 -59 -29 -13 6 -31 9 -40 7 -9 -1
-26 3 -38 10 -15 8 -23 9 -23 2 0 -5 -8 -10 -17 -10 -9 0 -25 -7 -35 -17 -11
-9 -18 -11 -18 -5 0 7 4 12 8 12 20 0 145 115 220 204 134 156 218 198 387
193 73 -2 101 -8 149 -30z m-2318 -76 c29 -44 24 -68 -21 -97 -21 -14 -26 -14
-54 0 -55 29 -58 60 -13 109 35 37 57 34 88 -12z m-356 -92 c16 -30 6 -53 -19
-40 -21 12 -34 38 -25 52 9 16 33 10 44 -12z m1785 -9 c3 -6 -4 -10 -17 -10
-18 0 -20 2 -8 10 19 12 18 12 25 0z m-4078 -67 c-3 -10 -5 -4 -5 12 0 17 2
24 5 18 2 -7 2 -21 0 -30z m3988 18 c-3 -2 -20 -5 -37 -7 -26 -2 -28 -1 -13 5
21 9 58 10 50 2z m-2964 -22 c19 -16 20 -18 4 -10 -34 17 -51 31 -39 31 7 0
22 -9 35 -21z m-162 -12 c8 -10 7 -14 -2 -14 -8 0 -14 6 -14 14 0 7 1 13 2 13
2 0 8 -6 14 -13z m2991 -1 c0 -2 -9 -6 -20 -9 -11 -3 -18 -1 -14 4 5 9 34 13
34 5z m-2769 -24 c-7 -2 -18 1 -23 6 -8 8 -4 9 13 5 13 -4 18 -8 10 -11z
m2666 2 c-3 -3 -12 -4 -19 -1 -8 3 -5 6 6 6 11 1 17 -2 13 -5z m-2807 -50 c0
-3 -13 4 -30 16 -16 12 -30 24 -30 26 0 3 14 -4 30 -16 17 -12 30 -24 30 -26z
m2683 29 c-6 -15 -6 -15 -27 -7 -24 9 -19 22 8 20 14 0 22 -6 19 -13z m502 1
c-25 -19 -184 -69 -192 -60 -4 3 1 6 10 6 10 0 17 4 17 9 0 5 9 11 20 14 11 3
22 6 25 7 6 3 129 38 135 39 3 0 -4 -6 -15 -15z m889 -54 c32 -12 73 -35 91
-52 l34 -29 -42 -63 c-23 -34 -47 -71 -52 -80 -10 -17 -13 -17 -70 0 -35 10
-95 17 -145 18 -153 1 -251 -44 -375 -173 -47 -48 -91 -82 -132 -103 -58 -28
-67 -30 -130 -23 -37 4 -75 11 -83 15 -15 8 -90 110 -90 123 0 4 22 7 48 7 58
0 148 22 203 50 22 12 95 74 162 138 125 119 186 159 284 188 69 20 223 11
297 -16z m-4530 10 c82 -13 144 -54 285 -186 76 -71 140 -122 173 -137 62 -29
163 -57 207 -57 17 0 31 -3 31 -6 0 -3 -30 -38 -66 -77 -61 -66 -68 -71 -102
-68 -59 4 -151 56 -237 133 -153 135 -241 177 -390 185 -87 5 -127 -2 -215
-40 -11 -5 -26 13 -55 66 -22 39 -40 81 -40 92 0 15 17 29 66 52 98 48 219 64
343 43z m1484 -15 c103 -24 201 -75 264 -137 87 -85 135 -165 292 -490 21 -42
51 -94 67 -114 34 -43 33 -58 -2 -62 -49 -6 -178 137 -264 293 -55 100 -169
212 -265 258 -147 72 -320 75 -457 7 -97 -47 -212 -145 -277 -237 -26 -37 -79
-111 -117 -163 -38 -52 -69 -102 -69 -111 0 -9 -9 -24 -20 -34 -11 -10 -22
-25 -25 -35 -13 -40 -145 -90 -293 -111 -62 -9 -80 -8 -120 7 -26 9 -57 27
-70 39 l-23 22 106 16 c117 18 226 59 308 114 77 52 104 80 151 158 99 162
209 331 254 387 51 65 141 135 218 169 87 39 236 49 342 24z m1502 4 c67 -15
158 -63 226 -119 64 -52 173 -195 243 -320 70 -124 186 -262 274 -326 73 -54
144 -81 256 -95 72 -10 88 -15 83 -27 -4 -11 -1 -13 8 -7 8 5 11 4 7 -3 -4 -5
-17 -8 -29 -4 -16 4 -20 2 -16 -10 5 -12 -1 -14 -30 -11 -24 2 -32 0 -24 -5
34 -23 -57 -29 -154 -11 -33 6 -111 36 -179 69 -66 32 -129 61 -140 64 -12 3
-57 42 -100 87 -188 189 -395 280 -571 251 -158 -26 -273 -115 -379 -296 -109
-184 -222 -283 -335 -294 -39 -4 -58 1 -100 24 -76 41 -160 128 -212 219 -127
221 -258 324 -448 350 -138 20 -342 -56 -475 -177 -105 -94 -157 -135 -185
-143 -20 -6 -14 4 31 51 31 33 95 111 141 174 143 195 262 277 414 287 230 15
369 -76 531 -347 93 -154 146 -219 209 -256 83 -49 132 -35 241 70 66 62 90
95 148 201 112 202 182 272 314 316 125 42 284 22 390 -48 84 -55 143 -115
267 -269 97 -121 136 -163 201 -214 7 -6 13 -1 17 16 8 31 -14 74 -68 133 -23
25 -81 96 -129 158 -87 111 -197 212 -275 252 -123 62 -275 78 -398 40 -170
-52 -267 -138 -374 -333 -35 -64 -81 -136 -102 -159 -36 -38 -40 -40 -55 -24
-16 15 -16 22 1 94 24 101 77 248 118 326 70 134 252 274 404 311 70 17 192
20 254 5z m990 -14 c-7 -9 -15 -13 -17 -11 -7 7 7 26 19 26 6 0 6 -6 -2 -15z
m-3015 -5 c3 -5 1 -10 -4 -10 -6 0 -11 5 -11 10 0 6 2 10 4 10 3 0 8 -4 11
-10z m1180 -141 c4 -5 4 -21 1 -35 -5 -19 -12 -25 -29 -22 -28 4 -35 38 -11
55 22 16 31 16 39 2z m-2119 -148 c71 -26 134 -68 236 -160 l76 -69 -31 -7
c-18 -3 -57 -9 -87 -12 -30 -3 -61 -10 -69 -16 -12 -9 -13 -9 -7 1 4 7 2 12
-8 12 -8 0 -16 6 -18 12 -3 7 -11 13 -19 14 -8 0 -41 13 -74 28 -54 25 -86 34
-196 52 -28 5 -41 15 -62 48 -15 22 -32 49 -39 58 -16 22 -10 27 54 50 65 23
158 19 244 -11z m4413 14 c30 -8 59 -19 64 -24 7 -7 -7 -36 -42 -89 l-52 -79
-78 -6 c-61 -4 -89 -11 -124 -31 -25 -15 -51 -24 -61 -20 -11 4 -16 1 -16 -10
0 -13 -7 -16 -32 -11 -31 5 -130 13 -172 14 -14 1 -2 19 50 72 162 167 309
225 463 184z m-3001 -260 c114 -29 220 -127 312 -290 95 -170 194 -257 322
-285 66 -15 127 -4 194 35 65 38 174 163 252 288 108 173 199 244 338 267 99
16 240 -27 349 -108 22 -16 87 -72 144 -125 106 -99 213 -171 313 -209 40 -16
56 -27 55 -39 -1 -10 -4 -17 -7 -17 -25 2 -53 -4 -45 -10 6 -4 11 -13 13 -19
3 -19 -72 -17 -88 2 -6 8 -15 14 -18 13 -18 -3 -74 29 -142 81 -191 146 -262
188 -368 215 -104 28 -218 17 -315 -28 -59 -29 -160 -129 -225 -223 -80 -117
-158 -194 -233 -232 -58 -29 -63 -30 -75 -13 -7 9 -14 25 -14 34 0 15 -8 17
-52 13 -29 -3 -73 -7 -98 -10 -24 -2 -46 -9 -48 -14 -2 -7 -14 -5 -33 5 -16 8
-35 12 -41 8 -6 -4 -8 -3 -5 3 6 10 -14 25 -35 27 -4 1 -13 8 -20 17 -7 8 -25
23 -40 32 -14 9 -64 69 -110 133 -86 122 -150 182 -228 217 -128 57 -250 63
-369 17 -79 -31 -118 -56 -257 -165 l-76 -59 -79 -1 c-63 0 -79 -3 -79 -15 -1
-9 -6 -6 -14 9 -9 16 -16 20 -20 12 -4 -6 -11 -9 -16 -6 -12 8 -41 -6 -34 -16
3 -5 -1 -9 -8 -10 -21 -1 -60 -5 -118 -12 -52 -6 -51 -5 20 13 41 10 130 46
196 79 108 55 134 73 235 169 165 156 240 203 358 227 70 14 122 12 209 -10z
m2329 -71 c-15 -8 -33 -12 -39 -8 -14 9 15 22 47 23 16 0 15 -2 -8 -15z
m-2342 -220 c65 -24 169 -128 249 -248 111 -166 194 -232 346 -271 77 -20 157
-16 244 15 123 42 184 100 325 307 34 51 81 109 103 129 160 144 407 119 608
-63 41 -37 91 -81 110 -96 19 -16 25 -24 13 -17 -19 9 -23 8 -23 -4 0 -17 -34
-38 -65 -40 -11 -1 -19 -8 -17 -15 3 -14 1 -13 -86 46 -87 59 -182 87 -280 81
-139 -8 -229 -66 -373 -239 -50 -60 -104 -119 -121 -131 -18 -12 -28 -17 -24
-10 5 9 -5 12 -37 12 -31 0 -49 6 -61 19 -20 22 -59 21 -107 -3 -20 -10 -56
-14 -124 -12 -52 1 -98 0 -101 -3 -3 -3 -24 -7 -47 -8 -66 -4 -85 -11 -89 -33
-3 -19 -6 -18 -53 13 -48 33 -106 95 -222 240 -57 70 -124 120 -187 140 -23 6
-86 12 -142 12 l-101 0 -106 -52 c-58 -29 -112 -53 -121 -53 -8 0 -18 -4 -21
-10 -9 -15 -45 -12 -91 9 -36 16 -43 17 -68 4 -15 -8 -30 -12 -33 -9 -3 2 13
14 34 25 34 17 149 103 163 122 3 3 36 30 73 58 78 59 130 87 184 101 55 14
190 5 248 -16z m-1002 -261 c-7 -2 -21 -2 -30 0 -10 3 -4 5 12 5 17 0 24 -2
18 -5z m97 3 c0 -2 -18 -6 -39 -8 -22 -2 -37 0 -35 4 5 8 74 11 74 4z m894
-40 c68 -40 98 -68 166 -158 35 -46 54 -75 43 -65 -20 17 -38 23 -30 10 14
-23 -129 -2 -203 29 -59 25 -156 33 -227 20 -32 -7 -78 -14 -103 -17 -25 -3
-50 -11 -55 -19 -13 -17 -89 -56 -110 -56 -9 0 -15 9 -15 21 0 12 -8 23 -20
26 -20 5 -29 33 -10 33 6 0 19 9 30 20 12 12 26 18 32 14 6 -4 8 -3 5 3 -3 5
22 30 56 54 145 104 191 121 314 115 66 -3 91 -9 127 -30z m1713 -3 c70 -35
172 -108 180 -130 6 -16 -15 -35 -29 -27 -5 3 -21 -4 -37 -15 l-29 -21 -102
22 c-92 18 -111 19 -171 8 -38 -6 -72 -11 -75 -10 -4 1 -10 -2 -13 -7 -3 -5
-29 -22 -58 -38 -29 -15 -62 -37 -75 -49 -12 -11 -26 -20 -31 -18 -5 1 -6 -1
-3 -6 3 -5 -11 -24 -32 -43 -20 -19 -29 -24 -19 -13 17 21 17 21 -10 18 -15
-2 -22 -1 -15 2 20 10 14 21 -19 33 -18 6 -28 15 -24 21 4 6 14 9 22 6 8 -3
11 -1 8 4 -13 21 163 228 216 256 100 51 222 54 316 7z m223 -163 c0 -5 -2
-10 -4 -10 -3 0 -8 5 -11 10 -3 6 -1 10 4 10 6 0 11 -4 11 -10z m35 -50 c-3
-6 1 -7 9 -4 26 10 18 -2 -18 -30 -24 -18 -37 -23 -42 -14 -4 6 -3 8 4 4 6 -3
14 -1 19 6 8 14 9 18 12 58 1 22 3 23 12 7 5 -9 7 -22 4 -27z m-2558 6 c-3 -8
-1 -17 6 -20 8 -3 8 -5 1 -5 -6 -1 -18 7 -25 16 -10 11 -10 14 -1 9 6 -4 12
-2 12 3 0 6 3 11 6 11 3 0 4 -6 1 -14z m2128 -56 c-3 -5 -16 -10 -28 -10 -16
0 -18 -3 -9 -9 14 -9 -3 -16 -60 -27 -43 -8 -33 5 25 31 55 26 82 32 72 15z
m-1274 -17 c13 -16 12 -17 -3 -4 -10 7 -18 15 -18 17 0 8 8 3 21 -13z m-593
-8 c-39 -43 -40 -45 -24 -51 9 -3 16 -10 16 -15 0 -11 -73 15 -77 27 -4 11 64
53 85 54 11 0 11 -3 0 -15z m676 -100 c6 -53 16 -85 27 -85 5 0 9 -5 9 -11 0
-21 -94 32 -105 60 -4 11 -2 11 9 2 11 -9 14 -9 13 1 -1 40 4 62 12 50 7 -11
10 -10 15 3 3 9 3 22 0 28 -5 9 -4 9 4 2 7 -6 14 -29 16 -50z m1006 41 c0 -2
-8 -10 -17 -17 -16 -13 -17 -12 -4 4 13 16 21 21 21 13z m410 -5 c-8 -5 -26
-12 -40 -15 l-25 -7 25 15 c14 9 32 15 40 15 13 0 13 -1 0 -8z"/>
<path d="M5026 7549 c-93 -23 -189 -80 -267 -158 -96 -97 -144 -179 -230 -393
-80 -199 -95 -227 -183 -335 -85 -106 -130 -134 -299 -188 -87 -27 -127 -57
-127 -92 0 -12 9 -14 43 -10 139 17 225 45 308 98 142 92 226 216 325 479 103
275 169 382 281 458 95 64 142 77 268 77 177 -1 254 -34 388 -169 77 -77 113
-144 201 -371 25 -66 68 -165 96 -220 42 -86 62 -113 132 -181 97 -95 157
-123 281 -131 94 -7 141 7 179 52 l27 32 -117 -1 c-117 -1 -118 -1 -195 37
-105 52 -200 146 -254 252 -22 44 -66 145 -98 225 -74 190 -115 265 -181 339
-64 70 -178 150 -261 181 -66 25 -249 36 -317 19z"/>
<path d="M7830 5829 c0 -16 4 -28 9 -25 8 5 3 56 -5 56 -2 0 -4 -14 -4 -31z"/>
<path d="M3500 5650 c0 -5 5 -10 11 -10 5 0 7 5 4 10 -3 6 -8 10 -11 10 -2 0
-4 -4 -4 -10z"/>
<path d="M3518 4473 c7 -3 16 -2 19 1 4 3 -2 6 -13 5 -11 0 -14 -3 -6 -6z"/>
<path d="M5010 2986 c7 -7 13 -7 20 0 6 6 3 10 -10 10 -13 0 -16 -4 -10 -10z"/>
<path d="M5685 2750 c-3 -5 -2 -10 4 -10 5 0 13 5 16 10 3 6 2 10 -4 10 -5 0
-13 -4 -16 -10z"/>
</g>
</svg>
